<svg width="821" height="821" viewBox="0 0 821 821" fill="none" xmlns="http://www.w3.org/2000/svg">
<path d="M615.75 615.75C729.106 502.394 729.106 318.606 615.75 205.25C502.394 91.8936 318.606 91.8936 205.25 205.25C91.8936 318.606 91.8936 502.394 205.25 615.75C318.606 729.106 502.394 729.106 615.75 615.75Z" stroke="#404D52" stroke-opacity="0.1" stroke-width="4" stroke-miterlimit="22.9256"/>
<path d="M247.852 438.9V283.994H266.156L330.46 378.824L395.09 283.994H413.084V438.9H393.604V317.953L330.46 409.586L267.332 317.953V438.9H247.852Z" fill="#404D52" fill-opacity="0.1"/>
<path d="M366.611 496.779H386.094V521.097C386.094 531.126 389.826 538.463 397.242 542.948C404.659 547.482 416.773 549.757 433.488 549.757C449.962 549.757 461.207 546.905 467.208 541.266C473.209 535.627 476.217 524.862 476.217 508.938V407.918H495.699V514.145C495.699 533.353 490.616 547.145 480.48 555.492C470.361 563.838 453.549 567.987 429.949 567.987C408.488 567.987 392.545 564.174 382.184 556.549C371.824 548.924 366.627 537.245 366.627 521.626V496.779H366.611Z" fill="#404D52" fill-opacity="0.1"/>
<path d="M542.169 567.988L537.006 283.994" stroke="#404D52" stroke-opacity="0.1" stroke-width="4.252" stroke-miterlimit="22.9256"/>
</svg>
